<svg preserveAspectRatio="none" overflow="visible" style="display: block;" width="74.43" height="16.224" viewBox="0 0 74.43 16.224" fill="none" xmlns="http://www.w3.org/2000/svg">
<g id="Group">
<path id="Vector" d="M16.907 15.9H19.457V4.823H16.907V15.9ZM18.187 3.068C18.599 3.068 18.95 2.924 19.237 2.638C19.3757 2.50444 19.4856 2.34388 19.5599 2.16622C19.6342 1.98856 19.6714 1.79756 19.669 1.605C19.669 1.198 19.525 0.852 19.237 0.567C19.0997 0.42891 18.9359 0.319991 18.7555 0.246785C18.5751 0.17358 18.3817 0.137597 18.187 0.141C17.78 0.141 17.431 0.283 17.141 0.567C16.85 0.852 16.704 1.197 16.704 1.605C16.704 2.006 16.85 2.35 17.141 2.637C17.431 2.924 17.781 3.068 18.187 3.068ZM28.102 16.224C29.242 16.224 30.259 16.014 31.154 15.593C32.018 15.198 32.77 14.593 33.342 13.835C33.905 13.083 34.25 12.211 34.379 11.216L34.386 11.125H31.792L31.771 11.201C31.6491 11.7376 31.4051 12.239 31.058 12.666C30.7194 13.0757 30.2882 13.3989 29.8 13.609C29.3 13.828 28.735 13.937 28.105 13.937C27.258 13.937 26.523 13.717 25.901 13.274C25.278 12.832 24.798 12.204 24.46 11.39C24.122 10.577 23.953 9.614 23.953 8.504V8.488C23.953 7.373 24.123 6.412 24.46 5.602C24.798 4.792 25.277 4.168 25.899 3.727C26.519 3.287 27.253 3.067 28.098 3.067C28.732 3.067 29.299 3.184 29.8 3.418C30.301 3.653 30.72 3.983 31.057 4.408C31.395 4.833 31.629 5.334 31.762 5.913L31.788 6.018H34.378L34.374 5.925C34.256 4.919 33.914 4.03 33.346 3.257C32.7719 2.47882 32.0149 1.85408 31.142 1.438C30.241 0.999 29.226 0.78 28.098 0.78C26.693 0.78 25.479 1.091 24.456 1.715C23.434 2.339 22.644 3.226 22.088 4.378C21.532 5.53 21.254 6.901 21.254 8.491V8.507C21.254 10.095 21.532 11.465 22.088 12.617C22.643 13.771 23.434 14.66 24.46 15.286C25.486 15.911 26.7 16.224 28.102 16.224ZM36.136 15.9H38.686V0.64H36.136V15.9ZM45.67 16.122C46.77 16.122 47.719 15.891 48.516 15.429C49.313 14.968 49.929 14.307 50.362 13.447C50.796 12.587 51.012 11.561 51.012 10.367V10.347C51.012 9.156 50.794 8.131 50.357 7.273C49.9485 6.44473 49.3042 5.75582 48.505 5.293C47.707 4.833 46.761 4.602 45.667 4.602C44.581 4.602 43.637 4.832 42.838 5.296C42.038 5.75909 41.3926 6.44828 40.983 7.277C40.545 8.136 40.327 9.159 40.327 10.347V10.367C40.327 11.558 40.543 12.584 40.977 13.445C41.411 14.305 42.027 14.967 42.827 15.429C43.627 15.891 44.574 16.122 45.67 16.122ZM45.674 14.056C45.102 14.056 44.611 13.91 44.202 13.62C43.794 13.329 43.48 12.909 43.261 12.359C43.042 11.809 42.932 11.146 42.932 10.369V10.349C42.932 9.573 43.042 8.911 43.262 8.364C43.482 7.816 43.797 7.397 44.206 7.105C44.614 6.814 45.102 6.668 45.667 6.668C46.238 6.668 46.727 6.813 47.136 7.104C47.544 7.394 47.857 7.814 48.077 8.362C48.297 8.911 48.407 9.572 48.407 10.349V10.369C48.407 11.145 48.297 11.807 48.079 12.357C47.861 12.907 47.549 13.327 47.143 13.619C46.737 13.909 46.247 14.056 45.674 14.056ZM56.27 16.122C56.767 16.13 57.261 16.051 57.73 15.889C58.16 15.733 58.528 15.511 58.836 15.221C59.145 14.931 59.393 14.582 59.566 14.195H59.696V15.9H62.246V4.823H59.696V11.267C59.696 11.677 59.641 12.049 59.531 12.381C59.4317 12.6965 59.2664 12.9873 59.046 13.234C58.8291 13.4723 58.5616 13.6589 58.263 13.78C57.9276 13.9123 57.5695 13.9772 57.209 13.971C56.455 13.971 55.902 13.755 55.552 13.324C55.202 12.893 55.026 12.261 55.026 11.43V4.823H52.476V11.989C52.476 12.856 52.62 13.599 52.909 14.217C53.198 14.835 53.625 15.307 54.19 15.633C54.756 15.959 55.449 16.122 56.27 16.122ZM68.354 16.098C68.879 16.098 69.359 16.018 69.795 15.858C70.651 15.5553 71.3534 14.9277 71.75 14.111H71.88V15.9H74.43V0.64H71.88V6.637H71.75C71.559 6.22815 71.286 5.86292 70.948 5.564C70.61 5.264 70.221 5.034 69.781 4.87C69.3217 4.70382 68.8364 4.62118 68.348 4.626C67.416 4.626 66.609 4.856 65.928 5.319C65.247 5.782 64.721 6.441 64.349 7.297C63.978 8.152 63.792 9.17 63.792 10.352V10.368C63.792 11.543 63.978 12.558 64.351 13.417C64.723 14.275 65.251 14.937 65.936 15.401C66.62 15.865 67.426 16.098 68.354 16.098ZM69.137 13.948C68.571 13.948 68.083 13.803 67.671 13.516C67.259 13.229 66.943 12.817 66.721 12.281C66.501 11.745 66.391 11.107 66.391 10.368V10.352C66.391 9.61 66.501 8.972 66.722 8.44C66.944 7.907 67.261 7.496 67.672 7.208C68.084 6.92 68.572 6.776 69.137 6.776C69.697 6.776 70.183 6.922 70.597 7.212C71.01 7.502 71.332 7.915 71.561 8.449C71.789 8.983 71.904 9.618 71.904 10.355V10.371C71.904 11.103 71.79 11.737 71.564 12.273C71.337 12.809 71.016 13.223 70.601 13.513C70.186 13.803 69.698 13.947 69.137 13.947V13.948ZM8.856 2.558C9.35 1.96 9.7 1.145 9.7 0.32C9.7 0.206 9.69 0.093 9.67 0C8.865 0.03 7.896 0.536 7.319 1.217C6.865 1.733 6.442 2.558 6.442 3.384C6.442 3.507 6.462 3.631 6.473 3.672C6.525 3.682 6.607 3.693 6.69 3.693C7.411 3.693 8.319 3.208 8.855 2.558H8.856ZM9.423 3.868C8.216 3.868 7.237 4.601 6.608 4.601C5.938 4.601 5.062 3.91 4.01 3.91C2.02 3.91 0 5.56 0 8.665C0 10.605 0.742 12.647 1.67 13.968C2.464 15.082 3.155 16 4.155 16C5.145 16 5.577 15.34 6.805 15.34C8.052 15.34 8.33 15.98 9.423 15.98C10.505 15.98 11.227 14.989 11.907 14.009C12.67 12.885 12.99 11.791 13 11.739C12.938 11.719 10.866 10.873 10.866 8.5C10.866 6.447 12.495 5.53 12.588 5.457C11.515 3.91 9.876 3.868 9.423 3.868Z" fill="black"/>
</g>
</svg>
